<?xml version="1.0" standalone="yes"?>

<svg version="1.1" viewBox="0.0 0.0 795.0 638.0" fill="none" stroke="none" stroke-linecap="square" stroke-miterlimit="10" clip-path="url(#clip0)" xmlns="http://www.w3.org/2000/svg" xmlns:xlink="http://www.w3.org/1999/xlink"><clipPath id="clip0"><path d="M0 0L795.0 0L795.0 638.0L0 638.0L0 0Z" clip-rule="nonzero"></path></clipPath><path d="M119.89764 393.0L255.17323 393.0L255.17323 584.5591L119.89764 584.5591Z" fill-rule="nonzero" fill="#6fa8dc" stroke="#073763" stroke-width="2.0" stroke-linejoin="round" stroke-linecap="butt"></path><path d="M120.32284 393.0L254.74803 393.0L254.74803 449.37796L120.32284 449.37796Z" fill-rule="nonzero" fill="#e06666"></path><path d="M119.89764 393.0L255.17323 393.0L255.17323 584.5591L119.89764 584.5591Z" fill-rule="nonzero" stroke="#073763" stroke-width="2.0" stroke-linejoin="round" stroke-linecap="butt"></path><path d="M119.89764 448.77954L255.17323 448.77954" fill-rule="nonzero" stroke="#073763" stroke-width="2.0" stroke-linejoin="round" stroke-linecap="butt" stroke-dasharray="8.0,6.0"></path><path d="M460.72177 393.0L595.9974 393.0L595.9974 584.5591L460.72177 584.5591Z" fill-rule="nonzero" fill="#6fa8dc" stroke="#073763" stroke-width="2.0" stroke-linejoin="round" stroke-linecap="butt"></path><path d="M461.14697 393.0L595.5722 393.0L595.5722 448.3701L461.14697 448.3701Z" fill-rule="nonzero" fill="#e06666"></path><path d="M460.72177 393.0L595.9974 393.0L595.9974 584.5591L460.72177 584.5591Z" fill-rule="nonzero" stroke="#073763" stroke-width="2.0" stroke-linejoin="round" stroke-linecap="butt"></path><path d="M460.72177 448.77954L595.9974 448.77954" fill-rule="nonzero" stroke="#073763" stroke-width="2.0" stroke-linejoin="round" stroke-linecap="butt" stroke-dasharray="8.0,6.0"></path><path d="M158.83624 511.1132L160.52374 510.97256Q160.64874 511.9882 161.08624 512.6444Q161.52374 513.30066 162.45343 513.7069Q163.38312 514.11316 164.53937 514.11316Q165.57062 514.11316 166.35968 513.80066Q167.14874 513.48816 167.53937 512.9569Q167.93 512.42566 167.93 511.8007Q167.93 511.16006 167.555 510.6835Q167.18 510.20694 166.32062 509.8788Q165.77374 509.66006 163.89874 509.21475Q162.02374 508.76944 161.27374 508.3632Q160.305 507.84756 159.82843 507.09756Q159.35187 506.34756 159.35187 505.41006Q159.35187 504.3788 159.9378 503.48038Q160.52374 502.58194 161.64093 502.121Q162.75812 501.66006 164.13312 501.66006Q165.64874 501.66006 166.805 502.14444Q167.96124 502.6288 168.57843 503.57413Q169.19562 504.51944 169.2425 505.72256L167.52374 505.84756Q167.38312 504.5663 166.57843 503.90225Q165.77374 503.2382 164.21124 503.2382Q162.58624 503.2382 161.83624 503.83975Q161.08624 504.4413 161.08624 505.28506Q161.08624 506.01944 161.6175 506.4882Q162.13312 506.95694 164.32843 507.45694Q166.52374 507.95694 167.33624 508.33194Q168.52374 508.8788 169.09406 509.71475Q169.66437 510.5507 169.66437 511.64444Q169.66437 512.73816 169.03937 513.6991Q168.41437 514.66003 167.2503 515.1913Q166.08624 515.72253 164.63312 515.72253Q162.78937 515.72253 161.53937 515.1835Q160.28937 514.6444 159.57843 513.5663Q158.8675 512.48816 158.83624 511.1132ZM171.03937 510.5663Q171.03937 507.83194 172.57062 506.5038Q173.83624 505.41006 175.66437 505.41006Q177.69562 505.41006 178.98468 506.746Q180.27374 508.08194 180.27374 510.4257Q180.27374 512.3319 179.70343 513.41785Q179.13312 514.5038 178.04718 515.10535Q176.96124 515.7069 175.66437 515.7069Q173.60187 515.7069 172.32062 514.3788Q171.03937 513.05066 171.03937 510.5663ZM172.75812 510.5663Q172.75812 512.4569 173.58624 513.3944Q174.41437 514.3319 175.66437 514.3319Q176.91437 514.3319 177.73468 513.3866Q178.555 512.4413 178.555 510.5038Q178.555 508.6757 177.72687 507.7382Q176.89874 506.8007 175.66437 506.8007Q174.41437 506.8007 173.58624 507.7382Q172.75812 508.6757 172.75812 510.5663ZM188.4925 515.48816L188.4925 514.03503Q187.35187 515.7069 185.3675 515.7069Q184.50812 515.7069 183.7503 515.371Q182.9925 515.03503 182.6253 514.53503Q182.25812 514.03503 182.10187 513.30066Q182.00812 512.80066 182.00812 511.7382L182.00812 505.6288L183.68 505.6288L183.68 511.09756Q183.68 512.41003 183.77374 512.86316Q183.93 513.5194 184.44562 513.8944Q184.96124 514.2694 185.71124 514.2694Q186.46124 514.2694 187.1175 513.8866Q187.77374 513.5038 188.04718 512.8397Q188.32062 512.17566 188.32062 510.91006L188.32062 505.6288L189.9925 505.6288L189.9925 515.48816L188.4925 515.48816ZM192.39874 515.48816L192.39874 505.6288L193.89874 505.6288L193.89874 507.1288Q194.47687 506.08194 194.96124 505.746Q195.44562 505.41006 196.03937 505.41006Q196.88312 505.41006 197.75812 505.95694L197.18 507.5038Q196.57062 507.14444 195.94562 507.14444Q195.39874 507.14444 194.96906 507.47256Q194.53937 507.8007 194.35187 508.3788Q194.07062 509.26944 194.07062 510.33194L194.07062 515.48816L192.39874 515.48816ZM205.07062 511.8788L206.71124 512.09753Q206.44562 513.78503 205.33624 514.746Q204.22687 515.7069 202.60187 515.7069Q200.58624 515.7069 199.35968 514.3866Q198.13312 513.0663 198.13312 510.59756Q198.13312 509.0038 198.65656 507.8085Q199.18 506.6132 200.26593 506.01163Q201.35187 505.41006 202.6175 505.41006Q204.22687 505.41006 205.2425 506.22256Q206.25812 507.03506 206.555 508.53506L204.93 508.78506Q204.69562 507.78506 204.10187 507.28506Q203.50812 506.78506 202.68 506.78506Q201.41437 506.78506 200.6253 507.6913Q199.83624 508.59756 199.83624 510.5507Q199.83624 512.53503 200.60187 513.4335Q201.3675 514.3319 202.58624 514.3319Q203.57062 514.3319 204.22687 513.73035Q204.88312 513.1288 205.07062 511.8788ZM214.71124 512.3163L216.43 512.53503Q216.02374 514.03503 214.92218 514.871Q213.82062 515.7069 212.10187 515.7069Q209.94562 515.7069 208.68 514.3788Q207.41437 513.05066 207.41437 510.64444Q207.41437 508.16006 208.6878 506.78506Q209.96124 505.41006 212.00812 505.41006Q213.9925 505.41006 215.2425 506.7538Q216.4925 508.09756 216.4925 510.5507Q216.4925 510.6913 216.47687 510.9882L209.13312 510.9882Q209.22687 512.61316 210.055 513.47253Q210.88312 514.3319 212.1175 514.3319Q213.02374 514.3319 213.67218 513.85535Q214.32062 513.3788 214.71124 512.3163ZM209.22687 509.6132L214.72687 509.6132Q214.6175 508.3788 214.10187 507.7538Q213.305 506.78506 212.02374 506.78506Q210.88312 506.78506 210.09406 507.5585Q209.305 508.33194 209.22687 509.6132Z" fill-rule="nonzero" fill="#000000"></path><path d="M144.52374 536.48816L144.52374 522.8944L153.69562 522.8944L153.69562 524.48816L146.32062 524.48816L146.32062 528.7069L152.69562 528.7069L152.69562 530.3163L146.32062 530.3163L146.32062 536.48816L144.52374 536.48816ZM155.6175 524.80066L155.6175 522.8944L157.28937 522.8944L157.28937 524.80066L155.6175 524.80066ZM155.6175 536.48816L155.6175 526.6288L157.28937 526.6288L157.28937 536.48816L155.6175 536.48816ZM159.71124 536.48816L159.71124 522.8944L161.38312 522.8944L161.38312 536.48816L159.71124 536.48816ZM170.63312 533.3163L172.35187 533.53503Q171.94562 535.03503 170.84406 535.871Q169.7425 536.7069 168.02374 536.7069Q165.8675 536.7069 164.60187 535.3788Q163.33624 534.05066 163.33624 531.6444Q163.33624 529.16003 164.60968 527.78503Q165.88312 526.41003 167.93 526.41003Q169.91437 526.41003 171.16437 527.7538Q172.41437 529.09753 172.41437 531.55066Q172.41437 531.6913 172.39874 531.98816L165.055 531.98816Q165.14874 533.61316 165.97687 534.47253Q166.805 535.3319 168.03937 535.3319Q168.94562 535.3319 169.59406 534.85535Q170.2425 534.3788 170.63312 533.3163ZM165.14874 530.61316L170.64874 530.61316Q170.53937 529.3788 170.02374 528.7538Q169.22687 527.78503 167.94562 527.78503Q166.805 527.78503 166.01593 528.5585Q165.22687 529.3319 165.14874 530.61316ZM173.60187 533.55066L175.25812 533.28503Q175.39874 534.28503 176.03156 534.8085Q176.66437 535.3319 177.805 535.3319Q178.96124 535.3319 179.51593 534.86316Q180.07062 534.3944 180.07062 533.7694Q180.07062 533.2069 179.58624 532.8788Q179.2425 532.66003 177.88312 532.3163Q176.03937 531.84753 175.32843 531.5116Q174.6175 531.17566 174.2503 530.5741Q173.88312 529.97253 173.88312 529.2538Q173.88312 528.59753 174.1878 528.03503Q174.4925 527.47253 175.00812 527.09753Q175.39874 526.8163 176.07062 526.61316Q176.7425 526.41003 177.50812 526.41003Q178.68 526.41003 179.555 526.746Q180.43 527.0819 180.84406 527.6522Q181.25812 528.22253 181.41437 529.17566L179.78937 529.3944Q179.68 528.6444 179.14093 528.2147Q178.60187 527.78503 177.63312 527.78503Q176.47687 527.78503 175.9925 528.16785Q175.50812 528.55066 175.50812 529.05066Q175.50812 529.3788 175.71124 529.6444Q175.91437 529.91003 176.35187 530.0819Q176.60187 530.17566 177.82062 530.5194Q179.58624 530.98816 180.28937 531.28503Q180.9925 531.5819 181.39093 532.16003Q181.78937 532.73816 181.78937 533.59753Q181.78937 534.42566 181.305 535.16785Q180.82062 535.91003 179.89874 536.3085Q178.97687 536.7069 177.82062 536.7069Q175.89874 536.7069 174.89093 535.91003Q173.88312 535.11316 173.60187 533.55066ZM183.52374 540.28503L183.35187 538.72253Q183.89874 538.86316 184.305 538.86316Q184.85187 538.86316 185.1878 538.67566Q185.52374 538.48816 185.7425 538.16003Q185.89874 537.91003 186.2425 536.91003Q186.28937 536.7694 186.39874 536.5038L182.66437 526.6288L184.46124 526.6288L186.50812 532.34753Q186.91437 533.42566 187.22687 534.6288Q187.50812 533.47253 187.91437 532.3788L190.00812 526.6288L191.68 526.6288L187.93 536.66003Q187.33624 538.28503 186.9925 538.8944Q186.555 539.72253 185.97687 540.10535Q185.39874 540.48816 184.60187 540.48816Q184.1175 540.48816 183.52374 540.28503ZM192.25812 533.55066L193.91437 533.28503Q194.055 534.28503 194.6878 534.8085Q195.32062 535.3319 196.46124 535.3319Q197.6175 535.3319 198.17218 534.86316Q198.72687 534.3944 198.72687 533.7694Q198.72687 533.2069 198.2425 532.8788Q197.89874 532.66003 196.53937 532.3163Q194.69562 531.84753 193.98468 531.5116Q193.27374 531.17566 192.90656 530.5741Q192.53937 529.97253 192.53937 529.2538Q192.53937 528.59753 192.84406 528.03503Q193.14874 527.47253 193.66437 527.09753Q194.055 526.8163 194.72687 526.61316Q195.39874 526.41003 196.16437 526.41003Q197.33624 526.41003 198.21124 526.746Q199.08624 527.0819 199.5003 527.6522Q199.91437 528.22253 200.07062 529.17566L198.44562 529.3944Q198.33624 528.6444 197.79718 528.2147Q197.25812 527.78503 196.28937 527.78503Q195.13312 527.78503 194.64874 528.16785Q194.16437 528.55066 194.16437 529.05066Q194.16437 529.3788 194.3675 529.6444Q194.57062 529.91003 195.00812 530.0819Q195.25812 530.17566 196.47687 530.5194Q198.2425 530.98816 198.94562 531.28503Q199.64874 531.5819 200.04718 532.16003Q200.44562 532.73816 200.44562 533.59753Q200.44562 534.42566 199.96124 535.16785Q199.47687 535.91003 198.555 536.3085Q197.63312 536.7069 196.47687 536.7069Q194.555 536.7069 193.54718 535.91003Q192.53937 535.11316 192.25812 533.55066ZM205.91437 534.98816L206.14874 536.47253Q205.44562 536.61316 204.88312 536.61316Q203.97687 536.61316 203.47687 536.3241Q202.97687 536.03503 202.77374 535.5741Q202.57062 535.11316 202.57062 533.59753L202.57062 527.9413L201.33624 527.9413L201.33624 526.6288L202.57062 526.6288L202.57062 524.1913L204.22687 523.1913L204.22687 526.6288L205.91437 526.6288L205.91437 527.9413L204.22687 527.9413L204.22687 533.6913Q204.22687 534.41003 204.3128 534.61316Q204.39874 534.8163 204.60187 534.9413Q204.805 535.0663 205.18 535.0663Q205.44562 535.0663 205.91437 534.98816ZM214.18 533.3163L215.89874 533.53503Q215.4925 535.03503 214.39093 535.871Q213.28937 536.7069 211.57062 536.7069Q209.41437 536.7069 208.14874 535.3788Q206.88312 534.05066 206.88312 531.6444Q206.88312 529.16003 208.15656 527.78503Q209.43 526.41003 211.47687 526.41003Q213.46124 526.41003 214.71124 527.7538Q215.96124 529.09753 215.96124 531.55066Q215.96124 531.6913 215.94562 531.98816L208.60187 531.98816Q208.69562 533.61316 209.52374 534.47253Q210.35187 535.3319 211.58624 535.3319Q212.4925 535.3319 213.14093 534.85535Q213.78937 534.3788 214.18 533.3163ZM208.69562 530.61316L214.19562 530.61316Q214.08624 529.3788 213.57062 528.7538Q212.77374 527.78503 211.4925 527.78503Q210.35187 527.78503 209.5628 528.5585Q208.77374 529.3319 208.69562 530.61316ZM217.805 536.48816L217.805 526.6288L219.305 526.6288L219.305 528.0194Q219.75812 527.30066 220.53156 526.85535Q221.305 526.41003 222.28937 526.41003Q223.38312 526.41003 224.08624 526.86316Q224.78937 527.3163 225.07062 528.1444Q226.2425 526.41003 228.1175 526.41003Q229.58624 526.41003 230.3753 527.22253Q231.16437 528.03503 231.16437 529.72253L231.16437 536.48816L229.4925 536.48816L229.4925 530.28503Q229.4925 529.28503 229.33624 528.8397Q229.18 528.3944 228.7503 528.1288Q228.32062 527.86316 227.7425 527.86316Q226.71124 527.86316 226.02374 528.55066Q225.33624 529.23816 225.33624 530.7694L225.33624 536.48816L223.66437 536.48816L223.66437 530.0819Q223.66437 528.97253 223.25812 528.41785Q222.85187 527.86316 221.91437 527.86316Q221.21124 527.86316 220.60968 528.23035Q220.00812 528.59753 219.7425 529.3163Q219.47687 530.03503 219.47687 531.3788L219.47687 536.48816L217.805 536.48816Z" fill-rule="nonzero" fill="#000000"></path><path d="M141.6448 427.49606L141.6448 415.49606L137.17606 415.49606L137.17606 413.9023L147.94168 413.9023L147.94168 415.49606L143.44168 415.49606L143.44168 427.49606L141.6448 427.49606ZM149.36356 427.49606L149.36356 417.6367L150.86356 417.6367L150.86356 419.1367Q151.44168 418.0898 151.92606 417.75388Q152.41043 417.41794 153.00418 417.41794Q153.84793 417.41794 154.72293 417.9648L154.1448 419.5117Q153.53543 419.1523 152.91043 419.1523Q152.36356 419.1523 151.93387 419.48044Q151.50418 419.80856 151.31668 420.3867Q151.03543 421.2773 151.03543 422.3398L151.03543 427.49606L149.36356 427.49606ZM162.0198 426.2773Q161.0823 427.0742 160.22293 427.3945Q159.36356 427.7148 158.37918 427.7148Q156.7698 427.7148 155.8948 426.92575Q155.0198 426.1367 155.0198 424.9023Q155.0198 424.16794 155.34793 423.5742Q155.67606 422.98044 156.2073 422.62106Q156.73856 422.2617 157.41043 422.0742Q157.91043 421.93356 158.8948 421.8242Q160.92606 421.5742 161.87918 421.24606Q161.87918 420.9023 161.87918 420.80856Q161.87918 419.79294 161.41043 419.37106Q160.7698 418.80856 159.50418 418.80856Q158.3323 418.80856 157.7698 419.2148Q157.2073 419.62106 156.94168 420.68356L155.30106 420.4492Q155.53543 419.4023 156.04324 418.7617Q156.55106 418.12106 157.512 417.7695Q158.47293 417.41794 159.75418 417.41794Q161.0198 417.41794 161.80106 417.7148Q162.5823 418.0117 162.9573 418.4648Q163.3323 418.91794 163.47293 419.60544Q163.56668 420.0273 163.56668 421.1367L163.56668 423.37106Q163.56668 425.6992 163.66824 426.31638Q163.7698 426.93356 164.09793 427.49606L162.34793 427.49606Q162.0823 426.98044 162.0198 426.2773ZM161.87918 422.55856Q160.97293 422.91794 159.1448 423.18356Q158.11356 423.3242 157.69168 423.5117Q157.2698 423.6992 157.03543 424.05856Q156.80106 424.41794 156.80106 424.85544Q156.80106 425.5273 157.30887 425.97263Q157.81668 426.41794 158.78543 426.41794Q159.75418 426.41794 160.50418 425.98825Q161.25418 425.55856 161.61356 424.8398Q161.87918 424.2617 161.87918 423.16794L161.87918 422.55856ZM165.9573 427.49606L165.9573 417.6367L167.4573 417.6367L167.4573 419.04294Q168.55106 417.41794 170.59793 417.41794Q171.48856 417.41794 172.23856 417.73825Q172.98856 418.05856 173.35574 418.582Q173.72293 419.10544 173.87918 419.80856Q173.97293 420.2773 173.97293 421.43356L173.97293 427.49606L172.30106 427.49606L172.30106 421.49606Q172.30106 420.48044 172.10574 419.97263Q171.91043 419.4648 171.41043 419.16794Q170.91043 418.87106 170.23856 418.87106Q169.17606 418.87106 168.40262 419.54294Q167.62918 420.2148 167.62918 422.12106L167.62918 427.49606L165.9573 427.49606ZM175.66043 424.55856L177.31668 424.29294Q177.4573 425.29294 178.09012 425.81638Q178.72293 426.3398 179.86356 426.3398Q181.0198 426.3398 181.5745 425.87106Q182.12918 425.4023 182.12918 424.7773Q182.12918 424.2148 181.6448 423.8867Q181.30106 423.66794 179.94168 423.3242Q178.09793 422.85544 177.387 422.5195Q176.67606 422.18356 176.30887 421.582Q175.94168 420.98044 175.94168 420.2617Q175.94168 419.60544 176.24637 419.04294Q176.55106 418.48044 177.06668 418.10544Q177.4573 417.8242 178.12918 417.62106Q178.80106 417.41794 179.56668 417.41794Q180.73856 417.41794 181.61356 417.75388Q182.48856 418.0898 182.90262 418.66013Q183.31668 419.23044 183.47293 420.18356L181.84793 420.4023Q181.73856 419.6523 181.1995 419.22263Q180.66043 418.79294 179.69168 418.79294Q178.53543 418.79294 178.05106 419.17575Q177.56668 419.55856 177.56668 420.05856Q177.56668 420.3867 177.7698 420.6523Q177.97293 420.91794 178.41043 421.0898Q178.66043 421.18356 179.87918 421.5273Q181.6448 421.99606 182.34793 422.29294Q183.05106 422.5898 183.4495 423.16794Q183.84793 423.74606 183.84793 424.60544Q183.84793 425.43356 183.36356 426.17575Q182.87918 426.91794 181.9573 427.31638Q181.03543 427.7148 179.87918 427.7148Q177.9573 427.7148 176.9495 426.91794Q175.94168 426.12106 175.66043 424.55856ZM186.06668 427.49606L186.06668 418.9492L184.5823 418.9492L184.5823 417.6367L186.06668 417.6367L186.06668 416.5898Q186.06668 415.60544 186.23856 415.12106Q186.47293 414.4648 187.0823 414.06638Q187.69168 413.66794 188.78543 413.66794Q189.48856 413.66794 190.34793 413.8242L190.09793 415.29294Q189.5823 415.1992 189.11356 415.1992Q188.34793 415.1992 188.03543 415.5195Q187.72293 415.8398 187.72293 416.73044L187.72293 417.6367L189.6448 417.6367L189.6448 418.9492L187.72293 418.9492L187.72293 427.49606L186.06668 427.49606ZM197.59793 424.3242L199.31668 424.54294Q198.91043 426.04294 197.80887 426.87888Q196.7073 427.7148 194.98856 427.7148Q192.8323 427.7148 191.56668 426.3867Q190.30106 425.05856 190.30106 422.6523Q190.30106 420.16794 191.5745 418.79294Q192.84793 417.41794 194.8948 417.41794Q196.87918 417.41794 198.12918 418.7617Q199.37918 420.10544 199.37918 422.55856Q199.37918 422.6992 199.36356 422.99606L192.0198 422.99606Q192.11356 424.62106 192.94168 425.48044Q193.7698 426.3398 195.00418 426.3398Q195.91043 426.3398 196.55887 425.86325Q197.2073 425.3867 197.59793 424.3242ZM192.11356 421.62106L197.61356 421.62106Q197.50418 420.3867 196.98856 419.7617Q196.19168 418.79294 194.91043 418.79294Q193.7698 418.79294 192.98074 419.56638Q192.19168 420.3398 192.11356 421.62106ZM201.2073 427.49606L201.2073 417.6367L202.7073 417.6367L202.7073 419.1367Q203.28543 418.0898 203.7698 417.75388Q204.25418 417.41794 204.84793 417.41794Q205.69168 417.41794 206.56668 417.9648L205.98856 419.5117Q205.37918 419.1523 204.75418 419.1523Q204.2073 419.1523 203.77762 419.48044Q203.34793 419.80856 203.16043 420.3867Q202.87918 421.2773 202.87918 422.3398L202.87918 427.49606L201.2073 427.49606ZM212.30106 420.87106Q212.30106 417.48044 214.12137 415.56638Q215.94168 413.6523 218.81668 413.6523Q220.69168 413.6523 222.2073 414.55075Q223.72293 415.4492 224.512 417.05856Q225.30106 418.66794 225.30106 420.7148Q225.30106 422.7773 224.46512 424.41013Q223.62918 426.04294 222.09793 426.8867Q220.56668 427.73044 218.80106 427.73044Q216.87918 427.73044 215.37137 426.80075Q213.86356 425.87106 213.0823 424.2695Q212.30106 422.66794 212.30106 420.87106ZM214.16043 420.9023Q214.16043 423.35544 215.48074 424.7695Q216.80106 426.18356 218.78543 426.18356Q220.81668 426.18356 222.12918 424.75388Q223.44168 423.3242 223.44168 420.6992Q223.44168 419.04294 222.887 417.80856Q222.3323 416.5742 221.24637 415.8867Q220.16043 415.1992 218.81668 415.1992Q216.91043 415.1992 215.53543 416.5117Q214.16043 417.8242 214.16043 420.9023ZM226.73856 423.12106L228.42606 422.98044Q228.55106 423.99606 228.98856 424.6523Q229.42606 425.30856 230.35574 425.7148Q231.28543 426.12106 232.44168 426.12106Q233.47293 426.12106 234.262 425.80856Q235.05106 425.49606 235.44168 424.9648Q235.8323 424.43356 235.8323 423.80856Q235.8323 423.16794 235.4573 422.69138Q235.0823 422.2148 234.22293 421.8867Q233.67606 421.66794 231.80106 421.22263Q229.92606 420.7773 229.17606 420.37106Q228.2073 419.85544 227.73074 419.10544Q227.25418 418.35544 227.25418 417.41794Q227.25418 416.3867 227.84012 415.48825Q228.42606 414.5898 229.54324 414.12888Q230.66043 413.66794 232.03543 413.66794Q233.55106 413.66794 234.7073 414.1523Q235.86356 414.6367 236.48074 415.582Q237.09793 416.5273 237.1448 417.73044L235.42606 417.85544Q235.28543 416.5742 234.48074 415.91013Q233.67606 415.24606 232.11356 415.24606Q230.48856 415.24606 229.73856 415.84763Q228.98856 416.4492 228.98856 417.29294Q228.98856 418.0273 229.5198 418.49606Q230.03543 418.9648 232.23074 419.4648Q234.42606 419.9648 235.23856 420.3398Q236.42606 420.8867 236.99637 421.72263Q237.56668 422.55856 237.56668 423.6523Q237.56668 424.74606 236.94168 425.707Q236.31668 426.66794 235.15262 427.1992Q233.98856 427.73044 232.53543 427.73044Q230.69168 427.73044 229.44168 427.19138Q228.19168 426.6523 227.48074 425.5742Q226.7698 424.49606 226.73856 423.12106Z" fill-rule="nonzero" fill="#000000"></path><path d="M470.25415 427.5L470.25415 413.90625L475.36353 413.90625Q476.9104 413.90625 477.8557 414.3125Q478.80103 414.71875 479.33228 415.57812Q479.86353 416.4375 479.86353 417.375Q479.86353 418.25 479.39478 419.02344Q478.92603 419.79688 477.95728 420.26562Q479.19165 420.625 479.8557 421.5Q480.51978 422.375 480.51978 423.5625Q480.51978 424.51562 480.12134 425.33594Q479.7229 426.15625 479.12915 426.60156Q478.5354 427.04688 477.63696 427.27344Q476.73853 427.5 475.44165 427.5L470.25415 427.5ZM472.05103 419.60938L474.98853 419.60938Q476.19165 419.60938 476.70728 419.45312Q477.39478 419.25 477.74634 418.78125Q478.0979 418.3125 478.0979 417.59375Q478.0979 416.92188 477.76978 416.40625Q477.44165 415.89062 476.8401 415.6953Q476.23853 415.5 474.76978 415.5L472.05103 415.5L472.05103 419.60938ZM472.05103 425.89062L475.44165 425.89062Q476.31665 425.89062 476.6604 425.82812Q477.2854 425.71875 477.70728 425.46094Q478.12915 425.20312 478.39478 424.70312Q478.6604 424.20312 478.6604 423.5625Q478.6604 422.79688 478.26978 422.23438Q477.87915 421.67188 477.19165 421.4453Q476.50415 421.21875 475.20728 421.21875L472.05103 421.21875L472.05103 425.89062ZM481.92603 422.57812Q481.92603 419.84375 483.45728 418.51562Q484.7229 417.42188 486.55103 417.42188Q488.58228 417.42188 489.87134 418.7578Q491.1604 420.09375 491.1604 422.4375Q491.1604 424.34375 490.5901 425.4297Q490.01978 426.51562 488.93384 427.1172Q487.8479 427.71875 486.55103 427.71875Q484.48853 427.71875 483.20728 426.39062Q481.92603 425.0625 481.92603 422.57812ZM483.64478 422.57812Q483.64478 424.46875 484.4729 425.40625Q485.30103 426.34375 486.55103 426.34375Q487.80103 426.34375 488.62134 425.39844Q489.44165 424.45312 489.44165 422.51562Q489.44165 420.6875 488.61353 419.75Q487.7854 418.8125 486.55103 418.8125Q485.30103 418.8125 484.4729 419.75Q483.64478 420.6875 483.64478 422.57812ZM492.30103 422.57812Q492.30103 419.84375 493.83228 418.51562Q495.0979 417.42188 496.92603 417.42188Q498.95728 417.42188 500.24634 418.7578Q501.5354 420.09375 501.5354 422.4375Q501.5354 424.34375 500.9651 425.4297Q500.39478 426.51562 499.30884 427.1172Q498.2229 427.71875 496.92603 427.71875Q494.86353 427.71875 493.58228 426.39062Q492.30103 425.0625 492.30103 422.57812ZM494.01978 422.57812Q494.01978 424.46875 494.8479 425.40625Q495.67603 426.34375 496.92603 426.34375Q498.17603 426.34375 498.99634 425.39844Q499.81665 424.45312 499.81665 422.51562Q499.81665 420.6875 498.98853 419.75Q498.1604 418.8125 496.92603 418.8125Q495.67603 418.8125 494.8479 419.75Q494.01978 420.6875 494.01978 422.57812ZM506.95728 426.0L507.19165 427.48438Q506.48853 427.625 505.92603 427.625Q505.01978 427.625 504.51978 427.33594Q504.01978 427.04688 503.81665 426.58594Q503.61353 426.125 503.61353 424.60938L503.61353 418.95312L502.37915 418.95312L502.37915 417.64062L503.61353 417.64062L503.61353 415.20312L505.26978 414.20312L505.26978 417.64062L506.95728 417.64062L506.95728 418.95312L505.26978 418.95312L505.26978 424.70312Q505.26978 425.42188 505.3557 425.625Q505.44165 425.82812 505.64478 425.95312Q505.8479 426.07812 506.2229 426.07812Q506.48853 426.07812 506.95728 426.0ZM507.81665 424.5625L509.4729 424.29688Q509.61353 425.29688 510.24634 425.8203Q510.87915 426.34375 512.0198 426.34375Q513.176 426.34375 513.7307 425.875Q514.2854 425.40625 514.2854 424.78125Q514.2854 424.21875 513.801 423.89062Q513.4573 423.67188 512.0979 423.32812Q510.25415 422.85938 509.5432 422.52344Q508.83228 422.1875 508.4651 421.58594Q508.0979 420.98438 508.0979 420.26562Q508.0979 419.60938 508.4026 419.04688Q508.70728 418.48438 509.2229 418.10938Q509.61353 417.82812 510.2854 417.625Q510.95728 417.42188 511.7229 417.42188Q512.8948 417.42188 513.7698 417.7578Q514.6448 418.09375 515.05884 418.66406Q515.4729 419.23438 515.62915 420.1875L514.00415 420.40625Q513.8948 419.65625 513.3557 419.22656Q512.81665 418.79688 511.8479 418.79688Q510.69165 418.79688 510.20728 419.1797Q509.7229 419.5625 509.7229 420.0625Q509.7229 420.39062 509.92603 420.65625Q510.12915 420.92188 510.56665 421.09375Q510.81665 421.1875 512.0354 421.53125Q513.801 422.0 514.50415 422.29688Q515.2073 422.59375 515.6057 423.17188Q516.00415 423.75 516.00415 424.60938Q516.00415 425.4375 515.5198 426.1797Q515.0354 426.92188 514.1135 427.3203Q513.19165 427.71875 512.0354 427.71875Q510.11353 427.71875 509.1057 426.92188Q508.0979 426.125 507.81665 424.5625ZM521.4729 426.0L521.7073 427.48438Q521.00415 427.625 520.44165 427.625Q519.5354 427.625 519.0354 427.33594Q518.5354 427.04688 518.3323 426.58594Q518.12915 426.125 518.12915 424.60938L518.12915 418.95312L516.8948 418.95312L516.8948 417.64062L518.12915 417.64062L518.12915 415.20312L519.7854 414.20312L519.7854 417.64062L521.4729 417.64062L521.4729 418.95312L519.7854 418.95312L519.7854 424.70312Q519.7854 425.42188 519.87134 425.625Q519.9573 425.82812 520.1604 425.95312Q520.3635 426.07812 520.7385 426.07812Q521.00415 426.07812 521.4729 426.0ZM522.9885 427.5L522.9885 417.64062L524.4885 417.64062L524.4885 419.14062Q525.06665 418.09375 525.551 417.7578Q526.0354 417.42188 526.62915 417.42188Q527.4729 417.42188 528.3479 417.96875L527.7698 419.51562Q527.1604 419.15625 526.5354 419.15625Q525.9885 419.15625 525.55884 419.48438Q525.12915 419.8125 524.94165 420.39062Q524.6604 421.28125 524.6604 422.34375L524.6604 427.5L522.9885 427.5ZM535.6448 426.28125Q534.7073 427.07812 533.8479 427.39844Q532.9885 427.71875 532.00415 427.71875Q530.3948 427.71875 529.5198 426.9297Q528.6448 426.14062 528.6448 424.90625Q528.6448 424.17188 528.9729 423.57812Q529.301 422.98438 529.8323 422.625Q530.3635 422.26562 531.0354 422.07812Q531.5354 421.9375 532.5198 421.82812Q534.551 421.57812 535.50415 421.25Q535.50415 420.90625 535.50415 420.8125Q535.50415 419.79688 535.0354 419.375Q534.3948 418.8125 533.12915 418.8125Q531.9573 418.8125 531.3948 419.21875Q530.8323 419.625 530.56665 420.6875L528.926 420.45312Q529.1604 419.40625 529.6682 418.76562Q530.176 418.125 531.13696 417.77344Q532.0979 417.42188 533.37915 417.42188Q534.6448 417.42188 535.426 417.71875Q536.2073 418.01562 536.5823 418.46875Q536.9573 418.92188 537.0979 419.60938Q537.19165 420.03125 537.19165 421.14062L537.19165 423.375Q537.19165 425.70312 537.2932 426.3203Q537.3948 426.9375 537.7229 427.5L535.9729 427.5Q535.7073 426.98438 535.6448 426.28125ZM535.50415 422.5625Q534.5979 422.92188 532.7698 423.1875Q531.7385 423.32812 531.31665 423.51562Q530.8948 423.70312 530.6604 424.0625Q530.426 424.42188 530.426 424.85938Q530.426 425.53125 530.93384 425.97656Q531.44165 426.42188 532.4104 426.42188Q533.37915 426.42188 534.12915 425.9922Q534.87915 425.5625 535.2385 424.84375Q535.50415 424.26562 535.50415 423.17188L535.50415 422.5625ZM539.5823 431.28125L539.5823 417.64062L541.1135 417.64062L541.1135 418.92188Q541.6448 418.17188 542.32446 417.79688Q543.00415 417.42188 543.9573 417.42188Q545.2229 417.42188 546.19165 418.0703Q547.1604 418.71875 547.6526 419.90625Q548.1448 421.09375 548.1448 422.5Q548.1448 424.01562 547.5979 425.22656Q547.051 426.4375 546.0198 427.07812Q544.9885 427.71875 543.8479 427.71875Q543.00415 427.71875 542.3401 427.3672Q541.676 427.01562 541.25415 426.48438L541.25415 431.28125L539.5823 431.28125ZM541.0979 422.625Q541.0979 424.53125 541.87134 425.4375Q542.6448 426.34375 543.7385 426.34375Q544.8479 426.34375 545.63696 425.40625Q546.426 424.46875 546.426 422.48438Q546.426 420.60938 545.6526 419.67188Q544.87915 418.73438 543.801 418.73438Q542.7385 418.73438 541.9182 419.73438Q541.0979 420.73438 541.0979 422.625ZM554.81665 420.875Q554.81665 417.48438 556.63696 415.5703Q558.4573 413.65625 561.3323 413.65625Q563.2073 413.65625 564.7229 414.5547Q566.2385 415.45312 567.0276 417.0625Q567.81665 418.67188 567.81665 420.71875Q567.81665 422.78125 566.9807 424.41406Q566.1448 426.04688 564.6135 426.89062Q563.0823 427.73438 561.31665 427.73438Q559.3948 427.73438 557.88696 426.8047Q556.37915 425.875 555.5979 424.27344Q554.81665 422.67188 554.81665 420.875ZM556.676 420.90625Q556.676 423.35938 557.99634 424.77344Q559.31665 426.1875 561.301 426.1875Q563.3323 426.1875 564.6448 424.7578Q565.9573 423.32812 565.9573 420.70312Q565.9573 419.04688 565.4026 417.8125Q564.8479 416.57812 563.76196 415.89062Q562.676 415.20312 561.3323 415.20312Q559.426 415.20312 558.051 416.51562Q556.676 417.82812 556.676 420.90625ZM569.2698 423.125L570.9573 422.98438Q571.0823 424.0 571.5198 424.65625Q571.9573 425.3125 572.88696 425.71875Q573.81665 426.125 574.9729 426.125Q576.00415 426.125 576.7932 425.8125Q577.5823 425.5 577.9729 424.96875Q578.3635 424.4375 578.3635 423.8125Q578.3635 423.17188 577.9885 422.6953Q577.6135 422.21875 576.75415 421.89062Q576.2073 421.67188 574.3323 421.22656Q572.4573 420.78125 571.7073 420.375Q570.7385 419.85938 570.26196 419.10938Q569.7854 418.35938 569.7854 417.42188Q569.7854 416.39062 570.37134 415.4922Q570.9573 414.59375 572.07446 414.1328Q573.19165 413.67188 574.56665 413.67188Q576.0823 413.67188 577.2385 414.15625Q578.3948 414.64062 579.01196 415.58594Q579.62915 416.53125 579.676 417.73438L577.9573 417.85938Q577.81665 416.57812 577.01196 415.91406Q576.2073 415.25 574.6448 415.25Q573.0198 415.25 572.2698 415.85156Q571.5198 416.45312 571.5198 417.29688Q571.5198 418.03125 572.051 418.5Q572.56665 418.96875 574.76196 419.46875Q576.9573 419.96875 577.7698 420.34375Q578.9573 420.89062 579.5276 421.72656Q580.0979 422.5625 580.0979 423.65625Q580.0979 424.75 579.4729 425.71094Q578.8479 426.67188 577.68384 427.20312Q576.5198 427.73438 575.06665 427.73438Q573.2229 427.73438 571.9729 427.1953Q570.7229 426.65625 570.01196 425.57812Q569.301 424.5 569.2698 423.125Z" fill-rule="nonzero" fill="#000000"></path><path d="M506.31665 509.99606L506.31665 497.99606L501.8479 497.99606L501.8479 496.4023L512.6135 496.4023L512.6135 497.99606L508.11353 497.99606L508.11353 509.99606L506.31665 509.99606ZM520.4729 508.7773Q519.5354 509.5742 518.676 509.8945Q517.81665 510.2148 516.8323 510.2148Q515.2229 510.2148 514.3479 509.42575Q513.4729 508.6367 513.4729 507.4023Q513.4729 506.66794 513.801 506.0742Q514.12915 505.48044 514.6604 505.12106Q515.19165 504.7617 515.8635 504.5742Q516.3635 504.43356 517.3479 504.3242Q519.37915 504.0742 520.3323 503.74606Q520.3323 503.4023 520.3323 503.30856Q520.3323 502.29294 519.8635 501.87106Q519.2229 501.30856 517.9573 501.30856Q516.7854 501.30856 516.2229 501.7148Q515.6604 502.12106 515.3948 503.18356L513.75415 502.9492Q513.9885 501.9023 514.49634 501.2617Q515.00415 500.62106 515.9651 500.2695Q516.926 499.91794 518.2073 499.91794Q519.4729 499.91794 520.25415 500.2148Q521.0354 500.5117 521.4104 500.9648Q521.7854 501.41794 521.926 502.10544Q522.0198 502.5273 522.0198 503.6367L522.0198 505.87106Q522.0198 508.1992 522.12134 508.81638Q522.2229 509.43356 522.551 509.99606L520.801 509.99606Q520.5354 509.48044 520.4729 508.7773ZM520.3323 505.05856Q519.426 505.41794 517.5979 505.68356Q516.56665 505.8242 516.1448 506.0117Q515.7229 506.1992 515.4885 506.55856Q515.25415 506.91794 515.25415 507.35544Q515.25415 508.0273 515.76196 508.47263Q516.2698 508.91794 517.2385 508.91794Q518.2073 508.91794 518.9573 508.48825Q519.7073 508.05856 520.06665 507.3398Q520.3323 506.7617 520.3323 505.66794L520.3323 505.05856ZM524.3948 509.99606L524.3948 500.1367L525.8948 500.1367L525.8948 501.6367Q526.4729 500.5898 526.9573 500.25388Q527.44165 499.91794 528.0354 499.91794Q528.87915 499.91794 529.75415 500.4648L529.176 502.0117Q528.56665 501.6523 527.94165 501.6523Q527.3948 501.6523 526.9651 501.98044Q526.5354 502.30856 526.3479 502.8867Q526.06665 503.7773 526.06665 504.8398L526.06665 509.99606L524.3948 509.99606ZM530.3323 510.80856L531.94165 511.05856Q532.051 511.80856 532.5198 512.1523Q533.12915 512.6054 534.2073 512.6054Q535.37915 512.6054 536.00415 512.1445Q536.62915 511.68356 536.8635 510.85544Q536.9885 510.3398 536.9729 508.6992Q535.87915 509.99606 534.25415 509.99606Q532.2229 509.99606 531.1057 508.5273Q529.9885 507.05856 529.9885 505.0117Q529.9885 503.60544 530.50415 502.41013Q531.0198 501.2148 531.9885 500.56638Q532.9573 499.91794 534.25415 499.91794Q536.00415 499.91794 537.12915 501.3242L537.12915 500.1367L538.676 500.1367L538.676 508.6523Q538.676 510.9648 538.2073 511.92575Q537.7385 512.88666 536.7229 513.44135Q535.7073 513.99603 534.2229 513.99603Q532.4573 513.99603 531.37134 513.19916Q530.2854 512.4023 530.3323 510.80856ZM531.7073 504.8867Q531.7073 506.8398 532.4807 507.73044Q533.25415 508.62106 534.4104 508.62106Q535.551 508.62106 536.3323 507.73044Q537.1135 506.8398 537.1135 504.9492Q537.1135 503.1367 536.30884 502.22263Q535.50415 501.30856 534.37915 501.30856Q533.2698 501.30856 532.4885 502.207Q531.7073 503.10544 531.7073 504.8867ZM547.75415 506.8242L549.4729 507.04294Q549.06665 508.54294 547.9651 509.37888Q546.8635 510.2148 545.1448 510.2148Q542.9885 510.2148 541.7229 508.8867Q540.4573 507.55856 540.4573 505.1523Q540.4573 502.66794 541.7307 501.29294Q543.00415 499.91794 545.051 499.91794Q547.0354 499.91794 548.2854 501.2617Q549.5354 502.60544 549.5354 505.05856Q549.5354 505.1992 549.5198 505.49606L542.176 505.49606Q542.2698 507.12106 543.0979 507.98044Q543.926 508.8398 545.1604 508.8398Q546.06665 508.8398 546.7151 508.36325Q547.3635 507.8867 547.75415 506.8242ZM542.2698 504.12106L547.7698 504.12106Q547.6604 502.8867 547.1448 502.2617Q546.3479 501.29294 545.06665 501.29294Q543.926 501.29294 543.13696 502.06638Q542.3479 502.8398 542.2698 504.12106ZM555.0354 508.49606L555.2698 509.98044Q554.56665 510.12106 554.00415 510.12106Q553.0979 510.12106 552.5979 509.832Q552.0979 509.54294 551.8948 509.082Q551.69165 508.62106 551.69165 507.10544L551.69165 501.4492L550.4573 501.4492L550.4573 500.1367L551.69165 500.1367L551.69165 497.6992L553.3479 496.6992L553.3479 500.1367L555.0354 500.1367L555.0354 501.4492L553.3479 501.4492L553.3479 507.1992Q553.3479 507.91794 553.43384 508.12106Q553.5198 508.3242 553.7229 508.4492Q553.926 508.5742 554.301 508.5742Q554.56665 508.5742 555.0354 508.49606Z" fill-rule="nonzero" fill="#000000"></path><path d="M485.3479 530.99603L485.3479 517.4023L494.51978 517.4023L494.51978 518.99603L487.14478 518.99603L487.14478 523.2148L493.51978 523.2148L493.51978 524.82416L487.14478 524.82416L487.14478 530.99603L485.3479 530.99603ZM496.44165 519.30853L496.44165 517.4023L498.11353 517.4023L498.11353 519.30853L496.44165 519.30853ZM496.44165 530.99603L496.44165 521.13666L498.11353 521.13666L498.11353 530.99603L496.44165 530.99603ZM500.5354 530.99603L500.5354 517.4023L502.20728 517.4023L502.20728 530.99603L500.5354 530.99603ZM511.45728 527.82416L513.176 528.0429Q512.7698 529.5429 511.6682 530.37885Q510.56665 531.2148 508.8479 531.2148Q506.69165 531.2148 505.42603 529.88666Q504.1604 528.55853 504.1604 526.1523Q504.1604 523.6679 505.43384 522.2929Q506.70728 520.9179 508.75415 520.9179Q510.73853 520.9179 511.98853 522.26166Q513.2385 523.6054 513.2385 526.05853Q513.2385 526.19916 513.2229 526.49603L505.87915 526.49603Q505.9729 528.12103 506.80103 528.9804Q507.62915 529.8398 508.86353 529.8398Q509.76978 529.8398 510.4182 529.3632Q511.06665 528.88666 511.45728 527.82416ZM505.9729 525.12103L511.4729 525.12103Q511.36353 523.88666 510.8479 523.26166Q510.05103 522.2929 508.76978 522.2929Q507.62915 522.2929 506.8401 523.06635Q506.05103 523.8398 505.9729 525.12103ZM514.426 528.05853L516.0823 527.7929Q516.2229 528.7929 516.8557 529.31635Q517.4885 529.8398 518.62915 529.8398Q519.7854 529.8398 520.3401 529.37103Q520.8948 528.9023 520.8948 528.2773Q520.8948 527.7148 520.4104 527.38666Q520.06665 527.1679 518.7073 526.82416Q516.8635 526.3554 516.1526 526.0195Q515.44165 525.68353 515.07446 525.082Q514.7073 524.4804 514.7073 523.76166Q514.7073 523.1054 515.01196 522.5429Q515.31665 521.9804 515.8323 521.6054Q516.2229 521.32416 516.8948 521.12103Q517.56665 520.9179 518.3323 520.9179Q519.50415 520.9179 520.37915 521.25385Q521.25415 521.5898 521.6682 522.1601Q522.0823 522.7304 522.2385 523.68353L520.6135 523.9023Q520.50415 523.1523 519.9651 522.7226Q519.426 522.2929 518.4573 522.2929Q517.301 522.2929 516.81665 522.6757Q516.3323 523.05853 516.3323 523.55853Q516.3323 523.88666 516.5354 524.1523Q516.7385 524.4179 517.176 524.5898Q517.426 524.68353 518.6448 525.0273Q520.4104 525.49603 521.1135 525.7929Q521.81665 526.0898 522.2151 526.6679Q522.6135 527.24603 522.6135 528.1054Q522.6135 528.93353 522.12915 529.6757Q521.6448 530.4179 520.7229 530.81635Q519.801 531.2148 518.6448 531.2148Q516.7229 531.2148 515.7151 530.4179Q514.7073 529.62103 514.426 528.05853ZM524.3479 534.7929L524.176 533.2304Q524.7229 533.37103 525.12915 533.37103Q525.676 533.37103 526.01196 533.18353Q526.3479 532.99603 526.56665 532.6679Q526.7229 532.4179 527.06665 531.4179Q527.1135 531.2773 527.2229 531.01166L523.4885 521.13666L525.2854 521.13666L527.3323 526.8554Q527.7385 527.93353 528.051 529.13666Q528.3323 527.9804 528.7385 526.88666L530.8323 521.13666L532.50415 521.13666L528.75415 531.1679Q528.1604 532.7929 527.81665 533.4023Q527.37915 534.2304 526.801 534.6132Q526.2229 534.99603 525.426 534.99603Q524.94165 534.99603 524.3479 534.7929ZM533.0823 528.05853L534.7385 527.7929Q534.87915 528.7929 535.51196 529.31635Q536.1448 529.8398 537.2854 529.8398Q538.44165 529.8398 538.99634 529.37103Q539.551 528.9023 539.551 528.2773Q539.551 527.7148 539.06665 527.38666Q538.7229 527.1679 537.3635 526.82416Q535.5198 526.3554 534.80884 526.0195Q534.0979 525.68353 533.7307 525.082Q533.3635 524.4804 533.3635 523.76166Q533.3635 523.1054 533.6682 522.5429Q533.9729 521.9804 534.4885 521.6054Q534.87915 521.32416 535.551 521.12103Q536.2229 520.9179 536.9885 520.9179Q538.1604 520.9179 539.0354 521.25385Q539.9104 521.5898 540.32446 522.1601Q540.7385 522.7304 540.8948 523.68353L539.2698 523.9023Q539.1604 523.1523 538.62134 522.7226Q538.0823 522.2929 537.1135 522.2929Q535.9573 522.2929 535.4729 522.6757Q534.9885 523.05853 534.9885 523.55853Q534.9885 523.88666 535.19165 524.1523Q535.3948 524.4179 535.8323 524.5898Q536.0823 524.68353 537.301 525.0273Q539.06665 525.49603 539.7698 525.7929Q540.4729 526.0898 540.87134 526.6679Q541.2698 527.24603 541.2698 528.1054Q541.2698 528.93353 540.7854 529.6757Q540.301 530.4179 539.37915 530.81635Q538.4573 531.2148 537.301 531.2148Q535.37915 531.2148 534.37134 530.4179Q533.3635 529.62103 533.0823 528.05853ZM546.7385 529.49603L546.9729 530.9804Q546.2698 531.12103 545.7073 531.12103Q544.801 531.12103 544.301 530.832Q543.801 530.5429 543.5979 530.082Q543.3948 529.62103 543.3948 528.1054L543.3948 522.44916L542.1604 522.44916L542.1604 521.13666L543.3948 521.13666L543.3948 518.69916L545.051 517.69916L545.051 521.13666L546.7385 521.13666L546.7385 522.44916L545.051 522.44916L545.051 528.19916Q545.051 528.9179 545.13696 529.12103Q545.2229 529.32416 545.426 529.44916Q545.62915 529.57416 546.00415 529.57416Q546.2698 529.57416 546.7385 529.49603ZM555.00415 527.82416L556.7229 528.0429Q556.31665 529.5429 555.2151 530.37885Q554.1135 531.2148 552.3948 531.2148Q550.2385 531.2148 548.9729 529.88666Q547.7073 528.55853 547.7073 526.1523Q547.7073 523.6679 548.9807 522.2929Q550.25415 520.9179 552.301 520.9179Q554.2854 520.9179 555.5354 522.26166Q556.7854 523.6054 556.7854 526.05853Q556.7854 526.19916 556.7698 526.49603L549.426 526.49603Q549.5198 528.12103 550.3479 528.9804Q551.176 529.8398 552.4104 529.8398Q553.31665 529.8398 553.9651 529.3632Q554.6135 528.88666 555.00415 527.82416ZM549.5198 525.12103L555.0198 525.12103Q554.9104 523.88666 554.3948 523.26166Q553.5979 522.2929 552.31665 522.2929Q551.176 522.2929 550.38696 523.06635Q549.5979 523.8398 549.5198 525.12103ZM558.62915 530.99603L558.62915 521.13666L560.12915 521.13666L560.12915 522.5273Q560.5823 521.80853 561.3557 521.3632Q562.12915 520.9179 563.1135 520.9179Q564.2073 520.9179 564.9104 521.37103Q565.6135 521.82416 565.8948 522.6523Q567.06665 520.9179 568.94165 520.9179Q570.4104 520.9179 571.19946 521.7304Q571.9885 522.5429 571.9885 524.2304L571.9885 530.99603L570.31665 530.99603L570.31665 524.7929Q570.31665 523.7929 570.1604 523.3476Q570.00415 522.9023 569.57446 522.63666Q569.1448 522.37103 568.56665 522.37103Q567.5354 522.37103 566.8479 523.05853Q566.1604 523.74603 566.1604 525.2773L566.1604 530.99603L564.4885 530.99603L564.4885 524.5898Q564.4885 523.4804 564.0823 522.9257Q563.676 522.37103 562.7385 522.37103Q562.0354 522.37103 561.43384 522.7382Q560.8323 523.1054 560.56665 523.82416Q560.301 524.5429 560.301 525.88666L560.301 530.99603L558.62915 530.99603Z" fill-rule="nonzero" fill="#000000"></path><path d="M333.85565 67.0L722.8635 67.0L722.8635 236.00787L333.85565 236.00787Z" fill-rule="nonzero" fill="#cfe2f3" stroke="#073763" stroke-width="2.0" stroke-linejoin="round" stroke-linecap="butt"></path><path d="M723.0 236.0L595.9764 393.5118" fill-rule="nonzero" stroke="#073763" stroke-width="2.0" stroke-linejoin="round" stroke-linecap="butt"></path><path d="M334.0 237.0L460.51968 392.84253" fill-rule="nonzero" stroke="#073763" stroke-width="2.0" stroke-linejoin="round" stroke-linecap="butt"></path><path d="M366.1204 94.46875L367.91727 94.921875Q367.35477 97.140625 365.88602 98.30469Q364.41727 99.46875 362.29227 99.46875Q360.08914 99.46875 358.71414 98.57031Q357.33914 97.671875 356.6204 95.97656Q355.90164 94.28125 355.90164 92.328125Q355.90164 90.203125 356.70633 88.625Q357.51102 87.046875 359.01102 86.22656Q360.51102 85.40625 362.3079 85.40625Q364.35477 85.40625 365.7454 86.44531Q367.13602 87.484375 367.6829 89.359375L365.91727 89.78125Q365.44852 88.296875 364.54227 87.61719Q363.63602 86.9375 362.27664 86.9375Q360.71414 86.9375 359.65945 87.6875Q358.60477 88.4375 358.17508 89.71094Q357.7454 90.984375 357.7454 92.328125Q357.7454 94.0625 358.2532 95.35156Q358.76102 96.640625 359.83133 97.28125Q360.90164 97.921875 362.13602 97.921875Q363.65164 97.921875 364.69852 97.05469Q365.7454 96.1875 366.1204 94.46875ZM369.65164 99.234375L369.65164 85.640625L371.32352 85.640625L371.32352 99.234375L369.65164 99.234375ZM380.27664 99.234375L380.27664 97.78125Q379.13602 99.453125 377.15164 99.453125Q376.29227 99.453125 375.53445 99.11719Q374.77664 98.78125 374.40945 98.28125Q374.04227 97.78125 373.88602 97.046875Q373.79227 96.546875 373.79227 95.484375L373.79227 89.375L375.46414 89.375L375.46414 94.84375Q375.46414 96.15625 375.5579 96.609375Q375.71414 97.265625 376.22977 97.640625Q376.7454 98.015625 377.4954 98.015625Q378.2454 98.015625 378.90164 97.63281Q379.5579 97.25 379.83133 96.58594Q380.10477 95.921875 380.10477 94.65625L380.10477 89.375L381.77664 89.375L381.77664 99.234375L380.27664 99.234375ZM383.52664 96.296875L385.1829 96.03125Q385.32352 97.03125 385.95633 97.55469Q386.58914 98.078125 387.72977 98.078125Q388.88602 98.078125 389.4407 97.609375Q389.9954 97.140625 389.9954 96.515625Q389.9954 95.953125 389.51102 95.625Q389.16727 95.40625 387.8079 95.0625Q385.96414 94.59375 385.2532 94.25781Q384.54227 93.921875 384.17508 93.32031Q383.8079 92.71875 383.8079 92.0Q383.8079 91.34375 384.11258 90.78125Q384.41727 90.21875 384.9329 89.84375Q385.32352 89.5625 385.9954 89.359375Q386.66727 89.15625 387.4329 89.15625Q388.60477 89.15625 389.47977 89.49219Q390.35477 89.828125 390.76883 90.39844Q391.1829 90.96875 391.33914 91.921875L389.71414 92.140625Q389.60477 91.390625 389.0657 90.96094Q388.52664 90.53125 387.5579 90.53125Q386.40164 90.53125 385.91727 90.91406Q385.4329 91.296875 385.4329 91.796875Q385.4329 92.125 385.63602 92.390625Q385.83914 92.65625 386.27664 92.828125Q386.52664 92.921875 387.7454 93.265625Q389.51102 93.734375 390.21414 94.03125Q390.91727 94.328125 391.3157 94.90625Q391.71414 95.484375 391.71414 96.34375Q391.71414 97.171875 391.22977 97.91406Q390.7454 98.65625 389.82352 99.05469Q388.90164 99.453125 387.7454 99.453125Q385.82352 99.453125 384.8157 98.65625Q383.8079 97.859375 383.52664 96.296875ZM397.1829 97.734375L397.41727 99.21875Q396.71414 99.359375 396.15164 99.359375Q395.2454 99.359375 394.7454 99.07031Q394.2454 98.78125 394.04227 98.32031Q393.83914 97.859375 393.83914 96.34375L393.83914 90.6875L392.60477 90.6875L392.60477 89.375L393.83914 89.375L393.83914 86.9375L395.4954 85.9375L395.4954 89.375L397.1829 89.375L397.1829 90.6875L395.4954 90.6875L395.4954 96.4375Q395.4954 97.15625 395.58133 97.359375Q395.66727 97.5625 395.8704 97.6875Q396.07352 97.8125 396.44852 97.8125Q396.71414 97.8125 397.1829 97.734375ZM405.46414 96.0625L407.1829 96.28125Q406.77664 97.78125 405.67508 98.61719Q404.57352 99.453125 402.85477 99.453125Q400.69852 99.453125 399.4329 98.125Q398.16727 96.796875 398.16727 94.390625Q398.16727 91.90625 399.4407 90.53125Q400.71414 89.15625 402.76102 89.15625Q404.7454 89.15625 405.9954 90.5Q407.2454 91.84375 407.2454 94.296875Q407.2454 94.4375 407.22977 94.734375L399.88602 94.734375Q399.97977 96.359375 400.8079 97.21875Q401.63602 98.078125 402.8704 98.078125Q403.77664 98.078125 404.42508 97.60156Q405.07352 97.125 405.46414 96.0625ZM399.97977 93.359375L405.47977 93.359375Q405.3704 92.125 404.85477 91.5Q404.0579 90.53125 402.77664 90.53125Q401.63602 90.53125 400.84695 91.30469Q400.0579 92.078125 399.97977 93.359375ZM409.07352 99.234375L409.07352 89.375L410.57352 89.375L410.57352 90.875Q411.15164 89.828125 411.63602 89.49219Q412.1204 89.15625 412.71414 89.15625Q413.5579 89.15625 414.4329 89.703125L413.85477 91.25Q413.2454 90.890625 412.6204 90.890625Q412.07352 90.890625 411.64383 91.21875Q411.21414 91.546875 411.02664 92.125Q410.7454 93.015625 410.7454 94.078125L410.7454 99.234375L409.07352 99.234375Z" fill-rule="nonzero" fill="#000000"></path><path d="M256.0 426.0L450.01575 426.0" fill-rule="evenodd" stroke="#073763" stroke-width="2.0" stroke-linejoin="round" stroke-linecap="butt"></path><path d="M450.01575 429.30347L459.09195 426.0L450.01575 422.69653Z" fill-rule="evenodd" fill="#073763" stroke="#073763" stroke-width="2.0" stroke-linecap="butt"></path><path d="M307.79688 399.13287L309.48438 398.99225Q309.60938 400.00787 310.04688 400.66412Q310.48438 401.32037 311.41406 401.72662Q312.34375 402.13287 313.5 402.13287Q314.53125 402.13287 315.3203 401.82037Q316.10938 401.50787 316.5 400.97662Q316.89062 400.44537 316.89062 399.82037Q316.89062 399.17975 316.51562 398.7032Q316.14062 398.22662 315.28125 397.8985Q314.73438 397.67975 312.85938 397.23444Q310.98438 396.78912 310.23438 396.38287Q309.26562 395.86725 308.78906 395.11725Q308.3125 394.36725 308.3125 393.42975Q308.3125 392.3985 308.89844 391.50006Q309.48438 390.60162 310.60156 390.1407Q311.71875 389.67975 313.09375 389.67975Q314.60938 389.67975 315.76562 390.16412Q316.92188 390.6485 317.53906 391.5938Q318.15625 392.53912 318.20312 393.74225L316.48438 393.86725Q316.34375 392.586 315.53906 391.92194Q314.73438 391.25787 313.17188 391.25787Q311.54688 391.25787 310.79688 391.85944Q310.04688 392.461 310.04688 393.30475Q310.04688 394.03912 310.57812 394.50787Q311.09375 394.97662 313.28906 395.47662Q315.48438 395.97662 316.29688 396.35162Q317.48438 396.8985 318.0547 397.73444Q318.625 398.57037 318.625 399.66412Q318.625 400.75787 318.0 401.7188Q317.375 402.67975 316.21094 403.211Q315.04688 403.74225 313.59375 403.74225Q311.75 403.74225 310.5 403.2032Q309.25 402.66412 308.53906 401.586Q307.82812 400.50787 307.79688 399.13287ZM320.23438 399.13287L321.92188 398.99225Q322.04688 400.00787 322.48438 400.66412Q322.92188 401.32037 323.85156 401.72662Q324.78125 402.13287 325.9375 402.13287Q326.96875 402.13287 327.7578 401.82037Q328.54688 401.50787 328.9375 400.97662Q329.32812 400.44537 329.32812 399.82037Q329.32812 399.17975 328.95312 398.7032Q328.57812 398.22662 327.71875 397.8985Q327.17188 397.67975 325.29688 397.23444Q323.42188 396.78912 322.67188 396.38287Q321.70312 395.86725 321.22656 395.11725Q320.75 394.36725 320.75 393.42975Q320.75 392.3985 321.33594 391.50006Q321.92188 390.60162 323.03906 390.1407Q324.15625 389.67975 325.53125 389.67975Q327.04688 389.67975 328.20312 390.16412Q329.35938 390.6485 329.97656 391.5938Q330.59375 392.53912 330.64062 393.74225L328.92188 393.86725Q328.78125 392.586 327.97656 391.92194Q327.17188 391.25787 325.60938 391.25787Q323.98438 391.25787 323.23438 391.85944Q322.48438 392.461 322.48438 393.30475Q322.48438 394.03912 323.01562 394.50787Q323.53125 394.97662 325.72656 395.47662Q327.92188 395.97662 328.73438 396.35162Q329.92188 396.8985 330.4922 397.73444Q331.0625 398.57037 331.0625 399.66412Q331.0625 400.75787 330.4375 401.7188Q329.8125 402.67975 328.64844 403.211Q327.48438 403.74225 326.03125 403.74225Q324.1875 403.74225 322.9375 403.2032Q321.6875 402.66412 320.97656 401.586Q320.26562 400.50787 320.23438 399.13287ZM333.34375 403.50787L333.34375 389.91412L335.15625 389.91412L335.15625 395.49225L342.21875 395.49225L342.21875 389.91412L344.01562 389.91412L344.01562 403.50787L342.21875 403.50787L342.21875 397.10162L335.15625 397.10162L335.15625 403.50787L333.34375 403.50787ZM345.29688 403.74225L349.23438 389.67975L350.57812 389.67975L346.64062 403.74225L345.29688 403.74225ZM351.71875 403.50787L351.71875 393.6485L353.21875 393.6485L353.21875 395.1485Q353.79688 394.10162 354.28125 393.7657Q354.76562 393.42975 355.35938 393.42975Q356.20312 393.42975 357.07812 393.97662L356.5 395.5235Q355.89062 395.16412 355.26562 395.16412Q354.71875 395.16412 354.28906 395.49225Q353.85938 395.82037 353.67188 396.3985Q353.39062 397.28912 353.39062 398.35162L353.39062 403.50787L351.71875 403.50787ZM357.26562 400.57037L358.92188 400.30475Q359.0625 401.30475 359.6953 401.8282Q360.32812 402.35162 361.46875 402.35162Q362.625 402.35162 363.1797 401.88287Q363.73438 401.41412 363.73438 400.78912Q363.73438 400.22662 363.25 399.8985Q362.90625 399.67975 361.54688 399.336Q359.70312 398.86725 358.9922 398.5313Q358.28125 398.19537 357.91406 397.5938Q357.54688 396.99225 357.54688 396.2735Q357.54688 395.61725 357.85156 395.05475Q358.15625 394.49225 358.67188 394.11725Q359.0625 393.836 359.73438 393.63287Q360.40625 393.42975 361.17188 393.42975Q362.34375 393.42975 363.21875 393.7657Q364.09375 394.10162 364.5078 394.67194Q364.92188 395.24225 365.07812 396.19537L363.45312 396.41412Q363.34375 395.66412 362.8047 395.23444Q362.26562 394.80475 361.29688 394.80475Q360.14062 394.80475 359.65625 395.18756Q359.17188 395.57037 359.17188 396.07037Q359.17188 396.3985 359.375 396.66412Q359.57812 396.92975 360.01562 397.10162Q360.26562 397.19537 361.48438 397.53912Q363.25 398.00787 363.95312 398.30475Q364.65625 398.60162 365.0547 399.17975Q365.45312 399.75787 365.45312 400.61725Q365.45312 401.44537 364.96875 402.18756Q364.48438 402.92975 363.5625 403.3282Q362.64062 403.72662 361.48438 403.72662Q359.5625 403.72662 358.5547 402.92975Q357.54688 402.13287 357.26562 400.57037ZM367.1875 407.30475L367.01562 405.74225Q367.5625 405.88287 367.96875 405.88287Q368.51562 405.88287 368.85156 405.69537Q369.1875 405.50787 369.40625 405.17975Q369.5625 404.92975 369.90625 403.92975Q369.95312 403.78912 370.0625 403.5235L366.32812 393.6485L368.125 393.6485L370.17188 399.36725Q370.57812 400.44537 370.89062 401.6485Q371.17188 400.49225 371.57812 399.3985L373.67188 393.6485L375.34375 393.6485L371.59375 403.67975Q371.0 405.30475 370.65625 405.91412Q370.21875 406.74225 369.64062 407.12506Q369.0625 407.50787 368.26562 407.50787Q367.78125 407.50787 367.1875 407.30475ZM376.59375 403.50787L376.59375 393.6485L378.09375 393.6485L378.09375 395.05475Q379.1875 393.42975 381.23438 393.42975Q382.125 393.42975 382.875 393.75006Q383.625 394.07037 383.9922 394.5938Q384.35938 395.11725 384.51562 395.82037Q384.60938 396.28912 384.60938 397.44537L384.60938 403.50787L382.9375 403.50787L382.9375 397.50787Q382.9375 396.49225 382.7422 395.98444Q382.54688 395.47662 382.04688 395.17975Q381.54688 394.88287 380.875 394.88287Q379.8125 394.88287 379.03906 395.55475Q378.26562 396.22662 378.26562 398.13287L378.26562 403.50787L376.59375 403.50787ZM393.40625 399.8985L395.04688 400.11725Q394.78125 401.80475 393.67188 402.7657Q392.5625 403.72662 390.9375 403.72662Q388.92188 403.72662 387.6953 402.4063Q386.46875 401.086 386.46875 398.61725Q386.46875 397.0235 386.9922 395.8282Q387.51562 394.63287 388.60156 394.0313Q389.6875 393.42975 390.95312 393.42975Q392.5625 393.42975 393.57812 394.24225Q394.59375 395.05475 394.89062 396.55475L393.26562 396.80475Q393.03125 395.80475 392.4375 395.30475Q391.84375 394.80475 391.01562 394.80475Q389.75 394.80475 388.96094 395.711Q388.17188 396.61725 388.17188 398.57037Q388.17188 400.55475 388.9375 401.4532Q389.70312 402.35162 390.92188 402.35162Q391.90625 402.35162 392.5625 401.75006Q393.21875 401.1485 393.40625 399.8985Z" fill-rule="nonzero" fill="#000000"></path><path d="M51.671875 427.68896L51.671875 414.0952L57.703125 414.0952Q59.515625 414.0952 60.460938 414.4546Q61.40625 414.81396 61.96875 415.74365Q62.53125 416.67334 62.53125 417.79834Q62.53125 419.25146 61.601562 420.24365Q60.671875 421.23584 58.703125 421.50146Q59.421875 421.8452 59.796875 422.17334Q60.578125 422.9077 61.28125 423.98584L63.65625 427.68896L61.390625 427.68896L59.59375 424.86084Q58.796875 423.6421 58.289062 422.98584Q57.78125 422.3296 57.375 422.07178Q56.96875 421.81396 56.5625 421.7202Q56.25 421.6421 55.546875 421.6421L53.46875 421.6421L53.46875 427.68896L51.671875 427.68896ZM53.46875 420.0952L57.328125 420.0952Q58.5625 420.0952 59.257812 419.8374Q59.953125 419.5796 60.320312 419.0171Q60.6875 418.4546 60.6875 417.79834Q60.6875 416.8296 59.984375 416.2124Q59.28125 415.5952 57.765625 415.5952L53.46875 415.5952L53.46875 420.0952ZM63.609375 427.68896L68.84375 414.0952L70.78125 414.0952L76.34375 427.68896L74.296875 427.68896L72.703125 423.56396L67.015625 423.56396L65.53125 427.68896L63.609375 427.68896ZM67.53125 422.11084L72.140625 422.11084L70.734375 418.3296Q70.078125 416.62646 69.765625 415.5171Q69.5 416.8296 69.03125 418.11084L67.53125 422.11084ZM77.484375 427.68896L77.484375 414.0952L80.203125 414.0952L83.421875 423.7202Q83.859375 425.06396 84.0625 425.73584Q84.296875 424.98584 84.796875 423.54834L88.046875 414.0952L90.46875 414.0952L90.46875 427.68896L88.734375 427.68896L88.734375 416.29834L84.78125 427.68896L83.15625 427.68896L79.21875 416.11084L79.21875 427.68896L77.484375 427.68896ZM93.34375 419.73584L93.34375 417.8296L95.25 417.8296L95.25 419.73584L93.34375 419.73584ZM93.34375 427.68896L93.34375 425.7827L95.25 425.7827L95.25 427.68896L93.34375 427.68896Z" fill-rule="nonzero" fill="#000000"></path><path d="M54.226624 525.98816L54.226624 512.3944L58.914124 512.3944Q60.49225 512.3944 61.336 512.5819Q62.49225 512.84753 63.320374 513.55066Q64.3985 514.47253 64.92975 515.8866Q65.461 517.30066 65.461 519.11316Q65.461 520.66003 65.10162 521.85535Q64.74225 523.05066 64.17975 523.8397Q63.61725 524.6288 62.945374 525.0741Q62.2735 525.5194 61.320374 525.7538Q60.36725 525.98816 59.132874 525.98816L54.226624 525.98816ZM56.0235 524.3788L58.92975 524.3788Q60.2735 524.3788 61.039124 524.1288Q61.80475 523.8788 62.257874 523.42566Q62.8985 522.78503 63.257874 521.7069Q63.61725 520.6288 63.61725 519.0819Q63.61725 516.9569 62.914124 515.8085Q62.211 514.66003 61.211 514.2694Q60.49225 513.98816 58.882874 513.98816L56.0235 513.98816L56.0235 524.3788ZM67.49225 514.30066L67.49225 512.3944L69.16412 512.3944L69.16412 514.30066L67.49225 514.30066ZM67.49225 525.98816L67.49225 516.1288L69.16412 516.1288L69.16412 525.98816L67.49225 525.98816ZM70.961 523.05066L72.61725 522.78503Q72.75787 523.78503 73.390686 524.3085Q74.0235 524.8319 75.16412 524.8319Q76.32037 524.8319 76.87506 524.36316Q77.42975 523.8944 77.42975 523.2694Q77.42975 522.7069 76.94537 522.3788Q76.60162 522.16003 75.24225 521.8163Q73.3985 521.34753 72.68756 521.0116Q71.97662 520.67566 71.609436 520.0741Q71.24225 519.47253 71.24225 518.7538Q71.24225 518.09753 71.546936 517.53503Q71.85162 516.97253 72.36725 516.59753Q72.75787 516.3163 73.42975 516.11316Q74.10162 515.91003 74.86725 515.91003Q76.03912 515.91003 76.91412 516.246Q77.78912 516.5819 78.203186 517.1522Q78.61725 517.72253 78.7735 518.67566L77.1485 518.8944Q77.03912 518.1444 76.50006 517.7147Q75.961 517.28503 74.99225 517.28503Q73.836 517.28503 73.35162 517.66785Q72.86725 518.05066 72.86725 518.55066Q72.86725 518.8788 73.07037 519.1444Q73.2735 519.41003 73.711 519.5819Q73.961 519.67566 75.17975 520.0194Q76.94537 520.48816 77.6485 520.78503Q78.35162 521.0819 78.75006 521.66003Q79.1485 522.23816 79.1485 523.09753Q79.1485 523.92566 78.66412 524.66785Q78.17975 525.41003 77.25787 525.8085Q76.336 526.2069 75.17975 526.2069Q73.25787 526.2069 72.25006 525.41003Q71.24225 524.61316 70.961 523.05066ZM80.97662 525.98816L80.97662 512.3944L82.6485 512.3944L82.6485 520.1444L86.60162 516.1288L88.75787 516.1288L84.99225 519.78503L89.13287 525.98816L87.07037 525.98816L83.82037 520.9569L82.6485 522.0819L82.6485 525.98816L80.97662 525.98816ZM90.75787 518.03503L90.75787 516.1288L92.66412 516.1288L92.66412 518.03503L90.75787 518.03503ZM90.75787 525.98816L90.75787 524.0819L92.66412 524.0819L92.66412 525.98816L90.75787 525.98816Z" fill-rule="nonzero" fill="#000000"></path><path d="M158.82443 358.125L160.51193 357.98438Q160.63693 359.0 161.07443 359.65625Q161.51193 360.3125 162.44162 360.71875Q163.3713 361.125 164.52756 361.125Q165.5588 361.125 166.34787 360.8125Q167.13693 360.5 167.52756 359.96875Q167.91818 359.4375 167.91818 358.8125Q167.91818 358.17188 167.54318 357.6953Q167.16818 357.21875 166.3088 356.89062Q165.76193 356.67188 163.88693 356.22656Q162.01193 355.78125 161.26193 355.375Q160.29318 354.85938 159.81662 354.10938Q159.34006 353.35938 159.34006 352.42188Q159.34006 351.39062 159.926 350.4922Q160.51193 349.59375 161.62912 349.1328Q162.7463 348.67188 164.1213 348.67188Q165.63693 348.67188 166.79318 349.15625Q167.94943 349.64062 168.56662 350.58594Q169.1838 351.53125 169.23068 352.73438L167.51193 352.85938Q167.3713 351.57812 166.56662 350.91406Q165.76193 350.25 164.19943 350.25Q162.57443 350.25 161.82443 350.85156Q161.07443 351.45312 161.07443 352.29688Q161.07443 353.03125 161.60568 353.5Q162.1213 353.96875 164.31662 354.46875Q166.51193 354.96875 167.32443 355.34375Q168.51193 355.89062 169.08224 356.72656Q169.65256 357.5625 169.65256 358.65625Q169.65256 359.75 169.02756 360.71094Q168.40256 361.67188 167.2385 362.20312Q166.07443 362.73438 164.6213 362.73438Q162.77756 362.73438 161.52756 362.1953Q160.27756 361.65625 159.56662 360.57812Q158.85568 359.5 158.82443 358.125ZM171.04318 357.57812Q171.04318 354.84375 172.57443 353.51562Q173.84006 352.42188 175.66818 352.42188Q177.69943 352.42188 178.9885 353.7578Q180.27756 355.09375 180.27756 357.4375Q180.27756 359.34375 179.70724 360.4297Q179.13693 361.51562 178.051 362.1172Q176.96506 362.71875 175.66818 362.71875Q173.60568 362.71875 172.32443 361.39062Q171.04318 360.0625 171.04318 357.57812ZM172.76193 357.57812Q172.76193 359.46875 173.59006 360.40625Q174.41818 361.34375 175.66818 361.34375Q176.91818 361.34375 177.7385 360.39844Q178.5588 359.45312 178.5588 357.51562Q178.5588 355.6875 177.73068 354.75Q176.90256 353.8125 175.66818 353.8125Q174.41818 353.8125 173.59006 354.75Q172.76193 355.6875 172.76193 357.57812ZM188.4963 362.5L188.4963 361.04688Q187.35568 362.71875 185.3713 362.71875Q184.51193 362.71875 183.75412 362.3828Q182.9963 362.04688 182.62912 361.54688Q182.26193 361.04688 182.10568 360.3125Q182.01193 359.8125 182.01193 358.75L182.01193 352.64062L183.6838 352.64062L183.6838 358.10938Q183.6838 359.42188 183.77756 359.875Q183.9338 360.53125 184.44943 360.90625Q184.96506 361.28125 185.71506 361.28125Q186.46506 361.28125 187.1213 360.89844Q187.77756 360.51562 188.051 359.85156Q188.32443 359.1875 188.32443 357.92188L188.32443 352.64062L189.9963 352.64062L189.9963 362.5L188.4963 362.5ZM192.40256 362.5L192.40256 352.64062L193.90256 352.64062L193.90256 354.14062Q194.48068 353.09375 194.96506 352.7578Q195.44943 352.42188 196.04318 352.42188Q196.88693 352.42188 197.76193 352.96875L197.1838 354.51562Q196.57443 354.15625 195.94943 354.15625Q195.40256 354.15625 194.97287 354.48438Q194.54318 354.8125 194.35568 355.39062Q194.07443 356.28125 194.07443 357.34375L194.07443 362.5L192.40256 362.5ZM205.07443 358.89062L206.71506 359.10938Q206.44943 360.79688 205.34006 361.7578Q204.23068 362.71875 202.60568 362.71875Q200.59006 362.71875 199.3635 361.39844Q198.13693 360.07812 198.13693 357.60938Q198.13693 356.01562 198.66037 354.8203Q199.1838 353.625 200.26974 353.02344Q201.35568 352.42188 202.6213 352.42188Q204.23068 352.42188 205.2463 353.23438Q206.26193 354.04688 206.5588 355.54688L204.9338 355.79688Q204.69943 354.79688 204.10568 354.29688Q203.51193 353.79688 202.6838 353.79688Q201.41818 353.79688 200.62912 354.70312Q199.84006 355.60938 199.84006 357.5625Q199.84006 359.54688 200.60568 360.4453Q201.3713 361.34375 202.59006 361.34375Q203.57443 361.34375 204.23068 360.7422Q204.88693 360.14062 205.07443 358.89062ZM214.71506 359.32812L216.4338 359.54688Q216.02756 361.04688 214.926 361.8828Q213.82443 362.71875 212.10568 362.71875Q209.94943 362.71875 208.6838 361.39062Q207.41818 360.0625 207.41818 357.65625Q207.41818 355.17188 208.69162 353.79688Q209.96506 352.42188 212.01193 352.42188Q213.9963 352.42188 215.2463 353.76562Q216.4963 355.10938 216.4963 357.5625Q216.4963 357.70312 216.48068 358.0L209.13693 358.0Q209.23068 359.625 210.0588 360.48438Q210.88693 361.34375 212.1213 361.34375Q213.02756 361.34375 213.676 360.8672Q214.32443 360.39062 214.71506 359.32812ZM209.23068 356.625L214.73068 356.625Q214.6213 355.39062 214.10568 354.76562Q213.3088 353.79688 212.02756 353.79688Q210.88693 353.79688 210.09787 354.5703Q209.3088 355.34375 209.23068 356.625Z" fill-rule="nonzero" fill="#000000"></path><path d="M153.66818 383.5L153.66818 369.90625L156.38693 369.90625L159.60568 379.53125Q160.04318 380.875 160.2463 381.54688Q160.48068 380.79688 160.98068 379.35938L164.23068 369.90625L166.65256 369.90625L166.65256 383.5L164.91818 383.5L164.91818 372.10938L160.96506 383.5L159.34006 383.5L155.40256 371.92188L155.40256 383.5L153.66818 383.5ZM175.4963 382.28125Q174.5588 383.07812 173.69943 383.39844Q172.84006 383.71875 171.85568 383.71875Q170.2463 383.71875 169.3713 382.9297Q168.4963 382.14062 168.4963 380.90625Q168.4963 380.17188 168.82443 379.57812Q169.15256 378.98438 169.6838 378.625Q170.21506 378.26562 170.88693 378.07812Q171.38693 377.9375 172.3713 377.82812Q174.40256 377.57812 175.35568 377.25Q175.35568 376.90625 175.35568 376.8125Q175.35568 375.79688 174.88693 375.375Q174.2463 374.8125 172.98068 374.8125Q171.8088 374.8125 171.2463 375.21875Q170.6838 375.625 170.41818 376.6875L168.77756 376.45312Q169.01193 375.40625 169.51974 374.76562Q170.02756 374.125 170.9885 373.77344Q171.94943 373.42188 173.23068 373.42188Q174.4963 373.42188 175.27756 373.71875Q176.0588 374.01562 176.4338 374.46875Q176.8088 374.92188 176.94943 375.60938Q177.04318 376.03125 177.04318 377.14062L177.04318 379.375Q177.04318 381.70312 177.14474 382.3203Q177.2463 382.9375 177.57443 383.5L175.82443 383.5Q175.5588 382.98438 175.4963 382.28125ZM175.35568 378.5625Q174.44943 378.92188 172.6213 379.1875Q171.59006 379.32812 171.16818 379.51562Q170.7463 379.70312 170.51193 380.0625Q170.27756 380.42188 170.27756 380.85938Q170.27756 381.53125 170.78537 381.97656Q171.29318 382.42188 172.26193 382.42188Q173.23068 382.42188 173.98068 381.9922Q174.73068 381.5625 175.09006 380.84375Q175.35568 380.26562 175.35568 379.17188L175.35568 378.5625ZM185.8713 379.89062L187.51193 380.10938Q187.2463 381.79688 186.13693 382.7578Q185.02756 383.71875 183.40256 383.71875Q181.38693 383.71875 180.16037 382.39844Q178.9338 381.07812 178.9338 378.60938Q178.9338 377.01562 179.45724 375.8203Q179.98068 374.625 181.06662 374.02344Q182.15256 373.42188 183.41818 373.42188Q185.02756 373.42188 186.04318 374.23438Q187.0588 375.04688 187.35568 376.54688L185.73068 376.79688Q185.4963 375.79688 184.90256 375.29688Q184.3088 374.79688 183.48068 374.79688Q182.21506 374.79688 181.426 375.70312Q180.63693 376.60938 180.63693 378.5625Q180.63693 380.54688 181.40256 381.4453Q182.16818 382.34375 183.38693 382.34375Q184.3713 382.34375 185.02756 381.7422Q185.6838 381.14062 185.8713 379.89062ZM188.76193 383.5L188.76193 369.90625L190.4338 369.90625L190.4338 374.78125Q191.60568 373.42188 193.38693 373.42188Q194.48068 373.42188 195.28537 373.85156Q196.09006 374.28125 196.44162 375.04688Q196.79318 375.8125 196.79318 377.25L196.79318 383.5L195.1213 383.5L195.1213 377.25Q195.1213 376.0 194.57443 375.4297Q194.02756 374.85938 193.04318 374.85938Q192.29318 374.85938 191.64474 375.2422Q190.9963 375.625 190.71506 376.28906Q190.4338 376.95312 190.4338 378.10938L190.4338 383.5L188.76193 383.5ZM199.15256 371.8125L199.15256 369.90625L200.82443 369.90625L200.82443 371.8125L199.15256 371.8125ZM199.15256 383.5L199.15256 373.64062L200.82443 373.64062L200.82443 383.5L199.15256 383.5ZM203.27756 383.5L203.27756 373.64062L204.77756 373.64062L204.77756 375.04688Q205.8713 373.42188 207.91818 373.42188Q208.8088 373.42188 209.5588 373.7422Q210.3088 374.0625 210.676 374.58594Q211.04318 375.10938 211.19943 375.8125Q211.29318 376.28125 211.29318 377.4375L211.29318 383.5L209.6213 383.5L209.6213 377.5Q209.6213 376.48438 209.426 375.97656Q209.23068 375.46875 208.73068 375.17188Q208.23068 374.875 207.5588 374.875Q206.4963 374.875 205.72287 375.54688Q204.94943 376.21875 204.94943 378.125L204.94943 383.5L203.27756 383.5ZM220.40256 380.32812L222.1213 380.54688Q221.71506 382.04688 220.6135 382.8828Q219.51193 383.71875 217.79318 383.71875Q215.63693 383.71875 214.3713 382.39062Q213.10568 381.0625 213.10568 378.65625Q213.10568 376.17188 214.37912 374.79688Q215.65256 373.42188 217.69943 373.42188Q219.6838 373.42188 220.9338 374.76562Q222.1838 376.10938 222.1838 378.5625Q222.1838 378.70312 222.16818 379.0L214.82443 379.0Q214.91818 380.625 215.7463 381.48438Q216.57443 382.34375 217.8088 382.34375Q218.71506 382.34375 219.3635 381.8672Q220.01193 381.39062 220.40256 380.32812ZM214.91818 377.625L220.41818 377.625Q220.3088 376.39062 219.79318 375.76562Q218.9963 374.79688 217.71506 374.79688Q216.57443 374.79688 215.78537 375.5703Q214.9963 376.34375 214.91818 377.625Z" fill-rule="nonzero" fill="#000000"></path><path d="M506.3127 362.50394L506.3127 350.50394L501.84396 350.50394L501.84396 348.9102L512.60956 348.9102L512.60956 350.50394L508.1096 350.50394L508.1096 362.50394L506.3127 362.50394ZM520.46893 361.2852Q519.53143 362.08206 518.67206 362.40237Q517.8127 362.7227 516.8283 362.7227Q515.21893 362.7227 514.34393 361.93362Q513.46893 361.14456 513.46893 359.9102Q513.46893 359.1758 513.79706 358.58206Q514.1252 357.9883 514.65643 357.62894Q515.1877 357.26956 515.85956 357.08206Q516.35956 356.94144 517.34393 356.83206Q519.3752 356.58206 520.3283 356.25394Q520.3283 355.9102 520.3283 355.81644Q520.3283 354.8008 519.85956 354.37894Q519.21893 353.81644 517.9533 353.81644Q516.78143 353.81644 516.21893 354.2227Q515.65643 354.62894 515.3908 355.69144L513.7502 355.45706Q513.98456 354.4102 514.4924 353.76956Q515.0002 353.12894 515.9611 352.77737Q516.92206 352.4258 518.2033 352.4258Q519.46893 352.4258 520.2502 352.7227Q521.03143 353.01956 521.40643 353.4727Q521.78143 353.9258 521.92206 354.6133Q522.0158 355.0352 522.0158 356.14456L522.0158 358.37894Q522.0158 360.70706 522.1174 361.32425Q522.21893 361.94144 522.54706 362.50394L520.79706 362.50394Q520.53143 361.9883 520.46893 361.2852ZM520.3283 357.56644Q519.42206 357.9258 517.59393 358.19144Q516.5627 358.33206 516.1408 358.51956Q515.71893 358.70706 515.48456 359.06644Q515.2502 359.4258 515.2502 359.8633Q515.2502 360.5352 515.758 360.9805Q516.2658 361.4258 517.23456 361.4258Q518.2033 361.4258 518.9533 360.99612Q519.7033 360.56644 520.0627 359.8477Q520.3283 359.26956 520.3283 358.1758L520.3283 357.56644ZM524.3908 362.50394L524.3908 352.64456L525.8908 352.64456L525.8908 354.14456Q526.46893 353.0977 526.9533 352.76175Q527.4377 352.4258 528.03143 352.4258Q528.8752 352.4258 529.7502 352.9727L529.17206 354.51956Q528.5627 354.1602 527.9377 354.1602Q527.3908 354.1602 526.9611 354.4883Q526.53143 354.81644 526.34393 355.39456Q526.0627 356.2852 526.0627 357.3477L526.0627 362.50394L524.3908 362.50394ZM530.3283 363.31644L531.9377 363.56644Q532.04706 364.31644 532.5158 364.6602Q533.1252 365.1133 534.2033 365.1133Q535.3752 365.1133 536.0002 364.65237Q536.6252 364.19144 536.85956 363.3633Q536.98456 362.8477 536.96893 361.20706Q535.8752 362.50394 534.2502 362.50394Q532.21893 362.50394 531.10175 361.0352Q529.98456 359.56644 529.98456 357.51956Q529.98456 356.1133 530.5002 354.918Q531.0158 353.7227 531.98456 353.07425Q532.9533 352.4258 534.2502 352.4258Q536.0002 352.4258 537.1252 353.83206L537.1252 352.64456L538.67206 352.64456L538.67206 361.1602Q538.67206 363.4727 538.2033 364.43362Q537.73456 365.39456 536.71893 365.94925Q535.7033 366.50394 534.21893 366.50394Q532.4533 366.50394 531.3674 365.70706Q530.28143 364.9102 530.3283 363.31644ZM531.7033 357.39456Q531.7033 359.3477 532.47675 360.2383Q533.2502 361.12894 534.40643 361.12894Q535.54706 361.12894 536.3283 360.2383Q537.10956 359.3477 537.10956 357.45706Q537.10956 355.64456 536.3049 354.7305Q535.5002 353.81644 534.3752 353.81644Q533.2658 353.81644 532.48456 354.71487Q531.7033 355.6133 531.7033 357.39456ZM547.7502 359.33206L549.46893 359.5508Q549.0627 361.0508 547.9611 361.88675Q546.85956 362.7227 545.1408 362.7227Q542.98456 362.7227 541.71893 361.39456Q540.4533 360.06644 540.4533 357.6602Q540.4533 355.1758 541.72675 353.8008Q543.0002 352.4258 545.04706 352.4258Q547.03143 352.4258 548.28143 353.76956Q549.53143 355.1133 549.53143 357.56644Q549.53143 357.70706 549.5158 358.00394L542.17206 358.00394Q542.2658 359.62894 543.09393 360.4883Q543.92206 361.3477 545.15643 361.3477Q546.0627 361.3477 546.7111 360.87112Q547.35956 360.39456 547.7502 359.33206ZM542.2658 356.62894L547.7658 356.62894Q547.65643 355.39456 547.1408 354.76956Q546.34393 353.8008 545.0627 353.8008Q543.92206 353.8008 543.133 354.57425Q542.34393 355.3477 542.2658 356.62894ZM555.03143 361.00394L555.2658 362.4883Q554.5627 362.62894 554.0002 362.62894Q553.09393 362.62894 552.59393 362.33987Q552.09393 362.0508 551.8908 361.58987Q551.6877 361.12894 551.6877 359.6133L551.6877 353.95706L550.4533 353.95706L550.4533 352.64456L551.6877 352.64456L551.6877 350.20706L553.34393 349.20706L553.34393 352.64456L555.03143 352.64456L555.03143 353.95706L553.34393 353.95706L553.34393 359.70706Q553.34393 360.4258 553.4299 360.62894Q553.5158 360.83206 553.71893 360.95706Q553.92206 361.08206 554.29706 361.08206Q554.5627 361.08206 555.03143 361.00394Z" fill-rule="nonzero" fill="#000000"></path><path d="M494.8596 383.50394L494.8596 369.9102L496.6721 369.9102L496.6721 383.50394L494.8596 383.50394ZM499.51584 383.50394L499.51584 373.64456L501.01584 373.64456L501.01584 375.0508Q502.1096 373.4258 504.15646 373.4258Q505.0471 373.4258 505.7971 373.74612Q506.5471 374.06644 506.91428 374.58987Q507.28146 375.1133 507.4377 375.81644Q507.53146 376.2852 507.53146 377.44144L507.53146 383.50394L505.8596 383.50394L505.8596 377.50394Q505.8596 376.4883 505.66428 375.9805Q505.46896 375.4727 504.96896 375.1758Q504.46896 374.87894 503.7971 374.87894Q502.7346 374.87894 501.96115 375.5508Q501.1877 376.2227 501.1877 378.12894L501.1877 383.50394L499.51584 383.50394ZM509.21896 380.56644L510.8752 380.3008Q511.01584 381.3008 511.64865 381.82425Q512.28143 382.3477 513.42206 382.3477Q514.5783 382.3477 515.133 381.87894Q515.6877 381.4102 515.6877 380.7852Q515.6877 380.2227 515.2033 379.89456Q514.85956 379.6758 513.5002 379.33206Q511.65646 378.8633 510.94553 378.52737Q510.2346 378.19144 509.8674 377.58987Q509.5002 376.9883 509.5002 376.26956Q509.5002 375.6133 509.8049 375.0508Q510.1096 374.4883 510.6252 374.1133Q511.01584 373.83206 511.6877 373.62894Q512.35956 373.4258 513.1252 373.4258Q514.29706 373.4258 515.17206 373.76175Q516.04706 374.0977 516.4611 374.668Q516.8752 375.2383 517.03143 376.19144L515.40643 376.4102Q515.29706 375.6602 514.758 375.2305Q514.21893 374.8008 513.2502 374.8008Q512.09393 374.8008 511.6096 375.18362Q511.1252 375.56644 511.1252 376.06644Q511.1252 376.39456 511.32834 376.6602Q511.53146 376.9258 511.96896 377.0977Q512.21893 377.19144 513.4377 377.5352Q515.2033 378.00394 515.90643 378.3008Q516.60956 378.5977 517.008 379.1758Q517.40643 379.75394 517.40643 380.6133Q517.40643 381.44144 516.92206 382.18362Q516.4377 382.9258 515.5158 383.32425Q514.59393 383.7227 513.4377 383.7227Q511.51584 383.7227 510.50803 382.9258Q509.5002 382.12894 509.21896 380.56644ZM522.8752 382.00394L523.10956 383.4883Q522.40643 383.62894 521.84393 383.62894Q520.9377 383.62894 520.4377 383.33987Q519.9377 383.0508 519.73456 382.58987Q519.53143 382.12894 519.53143 380.6133L519.53143 374.95706L518.29706 374.95706L518.29706 373.64456L519.53143 373.64456L519.53143 371.20706L521.1877 370.20706L521.1877 373.64456L522.8752 373.64456L522.8752 374.95706L521.1877 374.95706L521.1877 380.70706Q521.1877 381.4258 521.2736 381.62894Q521.35956 381.83206 521.5627 381.95706Q521.7658 382.08206 522.1408 382.08206Q522.40643 382.08206 522.8752 382.00394ZM530.84393 382.2852Q529.90643 383.08206 529.04706 383.40237Q528.1877 383.7227 527.2033 383.7227Q525.59393 383.7227 524.71893 382.93362Q523.84393 382.14456 523.84393 380.9102Q523.84393 380.1758 524.17206 379.58206Q524.5002 378.9883 525.03143 378.62894Q525.5627 378.26956 526.23456 378.08206Q526.73456 377.94144 527.71893 377.83206Q529.7502 377.58206 530.7033 377.25394Q530.7033 376.9102 530.7033 376.81644Q530.7033 375.8008 530.23456 375.37894Q529.59393 374.81644 528.3283 374.81644Q527.15643 374.81644 526.59393 375.2227Q526.03143 375.62894 525.7658 376.69144L524.1252 376.45706Q524.35956 375.4102 524.8674 374.76956Q525.3752 374.12894 526.3361 373.77737Q527.29706 373.4258 528.5783 373.4258Q529.84393 373.4258 530.6252 373.7227Q531.40643 374.01956 531.78143 374.4727Q532.15643 374.9258 532.29706 375.6133Q532.3908 376.0352 532.3908 377.14456L532.3908 379.37894Q532.3908 381.70706 532.4924 382.32425Q532.59393 382.94144 532.92206 383.50394L531.17206 383.50394Q530.90643 382.9883 530.84393 382.2852ZM530.7033 378.56644Q529.79706 378.9258 527.96893 379.19144Q526.9377 379.33206 526.5158 379.51956Q526.09393 379.70706 525.85956 380.06644Q525.6252 380.4258 525.6252 380.8633Q525.6252 381.5352 526.133 381.9805Q526.6408 382.4258 527.60956 382.4258Q528.5783 382.4258 529.3283 381.99612Q530.0783 381.56644 530.4377 380.8477Q530.7033 380.26956 530.7033 379.1758L530.7033 378.56644ZM534.78143 383.50394L534.78143 373.64456L536.28143 373.64456L536.28143 375.0508Q537.3752 373.4258 539.42206 373.4258Q540.3127 373.4258 541.0627 373.74612Q541.8127 374.06644 542.1799 374.58987Q542.54706 375.1133 542.7033 375.81644Q542.79706 376.2852 542.79706 377.44144L542.79706 383.50394L541.1252 383.50394L541.1252 377.50394Q541.1252 376.4883 540.9299 375.9805Q540.73456 375.4727 540.23456 375.1758Q539.73456 374.87894 539.0627 374.87894Q538.0002 374.87894 537.22675 375.5508Q536.4533 376.2227 536.4533 378.12894L536.4533 383.50394L534.78143 383.50394ZM551.59393 379.89456L553.23456 380.1133Q552.96893 381.8008 551.85956 382.76175Q550.7502 383.7227 549.1252 383.7227Q547.10956 383.7227 545.883 382.40237Q544.65643 381.08206 544.65643 378.6133Q544.65643 377.01956 545.1799 375.82425Q545.7033 374.62894 546.78925 374.02737Q547.8752 373.4258 549.1408 373.4258Q550.7502 373.4258 551.7658 374.2383Q552.78143 375.0508 553.0783 376.5508L551.4533 376.8008Q551.21893 375.8008 550.6252 375.3008Q550.03143 374.8008 549.2033 374.8008Q547.9377 374.8008 547.1486 375.70706Q546.35956 376.6133 546.35956 378.56644Q546.35956 380.5508 547.1252 381.44925Q547.8908 382.3477 549.10956 382.3477Q550.09393 382.3477 550.7502 381.74612Q551.40643 381.14456 551.59393 379.89456ZM561.23456 380.33206L562.9533 380.5508Q562.54706 382.0508 561.4455 382.88675Q560.34393 383.7227 558.6252 383.7227Q556.46893 383.7227 555.2033 382.39456Q553.9377 381.06644 553.9377 378.6602Q553.9377 376.1758 555.2111 374.8008Q556.48456 373.4258 558.53143 373.4258Q560.5158 373.4258 561.7658 374.76956Q563.0158 376.1133 563.0158 378.56644Q563.0158 378.70706 563.0002 379.00394L555.65643 379.00394Q555.7502 380.62894 556.5783 381.4883Q557.40643 382.3477 558.6408 382.3477Q559.54706 382.3477 560.1955 381.87112Q560.84393 381.39456 561.23456 380.33206ZM555.7502 377.62894L561.2502 377.62894Q561.1408 376.39456 560.6252 375.76956Q559.8283 374.8008 558.54706 374.8008Q557.40643 374.8008 556.6174 375.57425Q555.8283 376.3477 555.7502 377.62894Z" fill-rule="nonzero" fill="#000000"></path><path d="M191.0 462.0L191.0 448.99213" fill-rule="evenodd" stroke="#073763" stroke-width="2.0" stroke-linejoin="round" stroke-linecap="butt"></path><path d="M194.30347 448.99213L191.0 439.91592L187.69653 448.99213Z" fill-rule="evenodd" fill="#073763" stroke="#073763" stroke-width="2.0" stroke-linecap="butt"></path><path d="M531.0 435.09448L531.0 447.0" fill-rule="evenodd" stroke="#073763" stroke-width="2.0" stroke-linejoin="round" stroke-linecap="butt"></path><path d="M527.69653 447.0L531.0 456.0762L534.30347 447.0Z" fill-rule="evenodd" fill="#073763" stroke="#073763" stroke-width="2.0" stroke-linecap="butt"></path></svg>

